<svg width="353" height="222" viewBox="0 0 353 222" fill="none" xmlns="http://www.w3.org/2000/svg">
<path d="M218.772 137.374L219.14 137.157L221.377 135.808L222.236 135.264C222.785 134.923 223.326 134.582 223.853 134.241L224.783 133.632C225.267 133.32 225.736 133.001 226.227 132.689L227.143 132.058C227.59 131.754 228.031 131.442 228.464 131.137L229.322 130.521L230.585 129.585L231.365 128.998L232.649 127.983L233.262 127.489C233.876 126.989 234.467 126.496 235.03 125.995L235.752 125.394C236.019 125.154 236.264 124.915 236.517 124.668L236.87 124.335C237.361 123.87 237.823 123.406 238.263 122.942C238.364 122.841 238.458 122.732 238.552 122.63C238.891 122.26 239.223 121.905 239.533 121.528C239.656 121.39 239.779 121.245 239.894 121.1L240.197 120.745C240.45 120.433 240.688 120.128 240.919 119.816L241.02 119.679C241.373 119.2 241.705 118.721 242.008 118.228C242.182 117.953 242.355 117.677 242.514 117.401C242.586 117.278 242.643 117.148 242.716 117.024C242.788 116.901 242.939 116.611 243.04 116.401C243.141 116.19 243.315 115.842 243.444 115.567C243.574 115.291 243.625 115.16 243.704 114.957C243.784 114.754 243.791 114.762 243.827 114.667C243.957 114.341 244.065 114.022 244.173 113.695C244.313 113.246 244.428 112.796 244.52 112.346C244.52 112.296 244.556 112.238 244.57 112.18C244.585 112.122 244.57 112.013 244.606 111.926C244.649 111.716 244.678 111.505 244.707 111.302C244.736 111.099 244.751 110.99 244.765 110.831C244.779 110.671 244.801 110.41 244.815 110.2C244.83 109.989 244.815 110.004 244.815 109.902C244.815 109.801 244.815 109.678 244.815 109.562L244.888 83.0469C244.888 83.2572 244.888 83.4676 244.888 83.6851V83.9027C245.07 80.8804 244.242 77.8837 242.535 75.3884C240.082 71.5882 235.42 67.7517 228.55 63.8789C227.482 63.2842 226.385 62.7258 225.339 62.1819C224.502 61.7177 223.665 61.2681 222.821 60.8402C221.976 60.4123 221.146 59.9191 220.302 59.484C214.296 56.0422 207.818 53.5059 201.078 51.956C194.212 50.4312 187.146 50.0247 180.151 50.7521C172.682 51.5337 165.343 53.2764 158.315 55.9376C150.191 59.0703 142.344 62.8839 134.856 67.3383C126.706 72.0958 120.248 76.6382 115.48 80.9655C110.713 85.2927 107.706 89.5088 106.46 93.6136C106.03 95.0227 105.825 96.4915 105.854 97.965C105.854 97.8708 105.854 97.7692 105.854 97.6677L105.774 125.002C105.813 127.896 106.708 130.713 108.343 133.096C110.893 137.021 115.521 140.918 122.227 144.786C123.079 145.279 123.93 145.758 124.782 146.237L125.619 146.665C126.189 146.962 126.766 147.259 127.344 147.542C127.675 147.709 128.015 147.854 128.354 148.014C128.866 148.26 129.386 148.507 129.898 148.739C130.266 148.906 130.62 149.051 130.995 149.203C131.486 149.406 131.969 149.624 132.438 149.812L132.539 149.856C132.712 149.928 132.886 149.979 133.059 150.052C133.78 150.334 134.502 150.61 135.267 150.864L136.248 151.19L138.117 151.778L138.637 151.937L139.496 152.169L140.181 152.351C140.939 152.546 141.704 152.735 142.461 152.902L143.096 153.032C143.638 153.148 144.172 153.25 144.713 153.344L145.052 153.409C145.74 153.53 146.425 153.639 147.109 153.736H147.231L147.57 153.794C148.254 153.919 148.939 154.028 149.627 154.12H149.75L150.089 154.185L152.145 154.512C152.186 154.508 152.227 154.508 152.268 154.512L152.607 154.57C153.329 154.693 153.993 154.802 154.693 154.896H154.938L155.508 154.969C156.1 155.041 156.692 155.106 157.291 155.164L157.969 155.23L158.452 155.273C159.001 155.324 159.556 155.353 160.105 155.389H160.271C160.906 155.426 161.541 155.447 162.176 155.462H164.997H165.719H166.116C166.592 155.462 167.069 155.418 167.559 155.389H168.194C168.974 155.339 169.753 155.281 170.532 155.201H170.713C171.632 155.109 172.555 155 173.484 154.874L174.415 154.729C175.035 154.635 175.656 154.548 176.276 154.439L176.507 154.403L177.532 154.207L178.975 153.924L180.26 153.634C180.743 153.525 181.234 153.424 181.703 153.301L183.002 152.974L184.445 152.59L185.766 152.213L187.209 151.77L187.613 151.654L188.912 151.226L189.749 150.958C190.615 150.661 191.488 150.363 192.354 150.037C200.505 147.008 208.395 143.312 215.944 138.984C216.906 138.433 217.849 137.887 218.772 137.345V137.374ZM244.815 84.2798C244.815 84.4321 244.779 84.5917 244.758 84.744C244.736 84.8963 244.693 85.1646 244.657 85.3749C244.657 85.3749 244.657 85.4184 244.657 85.4402C244.735 85.0544 244.793 84.6646 244.83 84.2726L244.815 84.2798ZM244.585 85.7956C244.49 86.2512 244.372 86.7014 244.231 87.1445C244.372 86.7014 244.49 86.2512 244.585 85.7956ZM107.29 103.76C107.21 103.6 107.153 103.441 107.088 103.281C107.203 103.557 107.326 103.832 107.47 104.101C107.405 103.985 107.34 103.876 107.29 103.76Z" fill="#D6D8E5"/>
<path d="M91.3639 14.0914L91.2845 41.4183L34.8613 46.2484L34.9407 18.9214L91.3639 14.0914Z" fill="#395D96"/>
<path d="M42.0414 42.8978L41.962 70.2247L0 45.8785L0.0793778 18.5516L42.0414 42.8978Z" fill="#1F3F72"/>
<path d="M137.843 13.8665L137.771 41.1934L82.1416 73.6841L82.221 46.3499L137.843 13.8665Z" fill="#395D96"/>
<path d="M78.0355 63.7846L77.9634 91.1188L65.0825 83.6416L65.1619 56.3146L78.0355 63.7846Z" fill="#1F3F72"/>
<path d="M95.0946 53.8271L95.0224 81.154L77.9634 91.1188L78.0355 63.7846L95.0946 53.8271Z" fill="#395D96"/>
<path d="M42.8279 69.3617L42.7485 96.6886L19.6279 83.2717L19.7001 55.9448L42.8279 69.3617Z" fill="#1F3F72"/>
<path d="M65.1619 56.3146L65.0826 83.6416L42.7485 96.6886L42.8279 69.3616L65.1619 56.3146Z" fill="#395D96"/>
<path d="M82.2207 46.3571L95.0943 53.8271L78.0425 63.7918L65.1617 56.3074L42.8277 69.3617L19.7359 55.9448L42.106 42.8905L0.0791016 18.5516L17.7731 8.21694L113.929 0L137.828 13.8665L82.2207 46.3571ZM59.129 32.9403L91.3924 14.0841L34.9693 18.9142L59.0857 32.9403" fill="#2673F0"/>
<path d="M203.445 70.0869C203.106 69.8911 202.76 69.7098 202.413 69.5357L202.096 69.3906C201.836 69.2673 201.576 69.1513 201.309 69.0425L201.114 68.9555L200.999 68.9192C200.53 68.7379 200.046 68.5711 199.556 68.4261L199.447 68.3898L199.245 68.339C198.935 68.252 198.618 68.1722 198.293 68.107L198.091 68.0562H197.99C197.624 67.9837 197.249 67.9184 196.864 67.8604C196.489 67.8024 196.142 67.7661 195.717 67.7298H195.637H195.356L194.512 67.6791H192.729C192.224 67.6791 191.712 67.7153 191.192 67.7879H191.091L190.673 67.8386L190.038 67.9112L189.467 67.9982L188.818 68.0997L188.638 68.136H188.436C187.815 68.252 187.194 68.3826 186.552 68.5421C186.098 68.6509 185.621 68.7742 185.109 68.912L184.64 69.057L183.615 69.3616L183.399 69.4342L183.161 69.5139C182.439 69.746 181.717 69.9926 180.96 70.2754L180.815 70.3334C180.094 70.609 179.307 70.9136 178.521 71.2327L178.16 71.3778C177.366 71.7114 176.543 72.103 175.706 72.4366L175.208 72.6615C174.357 73.0458 173.491 73.452 172.596 73.8799L172.228 74.0612C171.348 74.4866 170.446 74.9363 169.522 75.4101L169.241 75.5479C168.288 76.0411 167.299 76.5632 166.296 77.0999L165.719 77.4118C164.728 77.9388 163.715 78.4948 162.681 79.0798L162.133 79.3917C161.036 80.0081 159.932 80.6391 158.792 81.3063L156.771 82.5029L156.143 82.88L155.039 83.5473L154.88 83.6416C154.123 84.1057 153.379 84.5626 152.665 85.0122L152.254 85.2733L150.572 86.3467L149.923 86.7746L148.566 87.6884L147.967 88.0945C147.433 88.4499 146.928 88.8197 146.43 89.1606L146.192 89.3274C145.629 89.7263 145.095 90.1179 144.576 90.5023L144.143 90.8359L143.075 91.6554L142.606 92.0325L141.646 92.8231L141.285 93.1277C140.881 93.4758 140.491 93.8529 140.123 94.1575C139.849 94.4186 139.589 94.6652 139.337 94.919L139.142 95.1148L138.601 95.6805L138.363 95.9488L137.944 96.4275L137.728 96.6958L137.583 96.8699C137.458 97.0246 137.343 97.1769 137.237 97.3268C137.1 97.5153 136.977 97.6966 136.854 97.8852L136.732 98.0883L136.53 98.4291C136.429 98.6177 136.328 98.8063 136.241 98.9948L136.169 99.1544C136.111 99.2922 136.053 99.4227 136.003 99.5533V99.6113C135.895 99.9093 135.808 100.215 135.743 100.525C135.691 100.786 135.66 101.05 135.649 101.316C135.649 101.316 135.649 101.366 135.649 101.388C135.646 101.432 135.646 101.475 135.649 101.519L135.577 128.846C135.577 128.78 135.577 128.708 135.577 128.642C135.591 128.377 135.622 128.113 135.671 127.852V127.852C135.734 127.538 135.823 127.23 135.938 126.931C135.936 126.9 135.936 126.868 135.938 126.837L136.104 126.445C136.104 126.394 136.147 126.336 136.176 126.278C136.263 126.09 136.364 125.901 136.472 125.713C136.58 125.524 136.616 125.459 136.696 125.335C136.775 125.212 136.761 125.219 136.804 125.161C136.919 124.98 137.049 124.792 137.179 124.603C137.309 124.414 137.497 124.182 137.67 123.972C137.742 123.878 137.814 123.791 137.894 123.704C137.973 123.617 138.161 123.385 138.305 123.225L138.543 122.957L139.091 122.391L139.279 122.195C139.539 121.934 139.813 121.673 140.102 121.412C140.462 121.071 140.823 120.73 141.263 120.375L141.624 120.07C141.927 119.809 142.245 119.548 142.584 119.28L143.046 118.91C143.392 118.634 143.767 118.359 144.114 118.083L144.547 117.757C145.066 117.365 145.6 116.973 146.163 116.575L146.401 116.502C146.892 116.154 147.397 115.777 147.924 115.443L148.523 115.037L149.88 114.131L150.529 113.71L152.218 112.629L152.622 112.368C153.343 111.919 154.065 111.462 154.844 110.997L156.078 110.272L156.735 109.873L158.755 108.684C159.886 108.026 160.997 107.391 162.089 106.777L162.638 106.458C163.677 105.877 164.687 105.319 165.683 104.789L166.26 104.478C167.263 103.941 168.245 103.419 169.204 102.926L169.493 102.723C170.417 102.239 171.319 101.789 172.199 101.374L172.567 101.192C173.462 100.767 174.335 100.361 175.187 99.9739L175.677 99.7491C176.522 99.3792 177.337 99.0238 178.131 98.6902L178.492 98.5452C179.278 98.2261 180.05 97.9215 180.786 97.6459L180.938 97.5879C181.696 97.3123 182.424 97.0584 183.139 96.8626L183.586 96.7176C183.933 96.6015 184.272 96.5 184.611 96.4057L185.087 96.2607C185.571 96.1301 186.047 95.9996 186.53 95.8908C187.165 95.7313 187.793 95.608 188.407 95.4919L188.796 95.4194L189.439 95.3106L190.009 95.2236L190.644 95.1511L191.163 95.093C191.69 95.0423 192.202 95.006 192.708 94.9843H194.028H194.447C194.735 94.9843 195.017 94.9988 195.291 95.0278H195.652C196.041 95.0278 196.424 95.1003 196.806 95.1583C197.182 95.2163 197.528 95.2816 197.925 95.3541L198.235 95.4267C198.553 95.4992 198.87 95.5717 199.18 95.6587L199.498 95.7458C199.989 95.8908 200.465 96.0576 200.941 96.2389L201.251 96.3622C201.511 96.4686 201.771 96.5846 202.031 96.7103C202.139 96.7611 202.247 96.8046 202.348 96.8626C202.704 97.027 203.051 97.2083 203.387 97.4065C206.274 99.0843 207.717 100.994 207.717 103.136L207.789 75.809C207.789 73.6623 206.346 71.7525 203.46 70.0796" fill="#395D96"/>
<path d="M237.325 80.2765C237.325 80.4941 237.311 80.7116 237.282 80.9292C237.282 81.0888 237.246 81.2483 237.224 81.4079C237.203 81.5674 237.159 81.843 237.123 82.0606L237.037 82.4885C236.943 82.9584 236.825 83.4232 236.683 83.8809C236.553 84.3088 236.387 84.744 236.221 85.1791C236.135 85.3894 236.048 85.5925 235.954 85.8028C235.86 86.0131 235.694 86.383 235.557 86.6658L235.225 87.3113C234.72 88.2524 234.156 89.1607 233.537 90.0309L233.436 90.176C233.118 90.6111 232.772 91.0535 232.418 91.4959L232.058 91.9383C231.74 92.3154 231.415 92.6635 231.076 93.0697L230.788 93.396C230.34 93.8747 229.878 94.3533 229.395 94.8465L229.041 95.1874C228.572 95.6443 228.096 96.0939 227.598 96.5508C227.1 97.0077 226.436 97.5734 225.83 98.0883L225.217 98.5887C224.791 98.9368 224.365 99.314 223.925 99.6403L223.153 100.242L221.89 101.207L221.024 101.845L219.703 102.802L218.794 103.448L217.351 104.42L216.427 105.043L214.804 106.102C214.522 106.291 214.241 106.472 213.945 106.653C213.223 107.118 212.466 107.589 211.708 108.053L211.347 108.278C210.414 108.844 209.452 109.414 208.461 109.989C200.955 114.437 193.097 118.253 184.965 121.397C184.092 121.724 183.226 122.036 182.36 122.34L181.523 122.623L179.82 123.182L178.34 123.631L177.027 124.023L175.584 124.422C175.144 124.53 174.711 124.654 174.278 124.755C173.845 124.857 173.304 124.995 172.835 125.103C172.365 125.212 171.976 125.306 171.55 125.393C171.124 125.481 170.576 125.589 170.107 125.691L168.772 125.93L166.896 126.235L165.972 126.373C165.048 126.503 164.125 126.619 163.201 126.713C162.277 126.808 161.527 126.866 160.69 126.924H160.047C159.441 126.96 158.835 126.989 158.229 127.004H157.507C156.93 127.004 156.353 127.004 155.775 127.004H155.054C154.289 127.004 153.524 127.004 152.759 126.924H152.593C151.872 126.88 151.15 126.822 150.428 126.764L149.743 126.692C149.151 126.634 148.559 126.568 147.968 126.489L147.398 126.416C146.618 126.307 145.839 126.191 145.059 126.053L144.735 125.988C143.977 125.85 143.227 125.705 142.476 125.546C141.726 125.386 140.953 125.19 140.189 124.995L139.51 124.813L138.132 124.414C137.511 124.233 136.884 124.037 136.263 123.834L135.282 123.508C134.56 123.247 133.802 122.978 133.066 122.688C132.864 122.609 132.655 122.543 132.446 122.456C131.962 122.268 131.479 122.05 131.002 121.847L129.906 121.383C129.393 121.158 128.881 120.912 128.368 120.658L127.344 120.179C126.774 119.896 126.204 119.599 125.626 119.301L124.789 118.866C123.938 118.417 123.086 117.938 122.228 117.416C115.526 113.519 110.898 109.61 108.344 105.689C107.924 105.051 107.547 104.384 107.218 103.694C106.276 101.798 105.782 99.7079 105.775 97.5879L105.695 124.922C105.734 127.816 106.629 130.633 108.264 133.016C110.867 136.995 115.521 140.918 122.228 144.786C123.079 145.279 123.931 145.758 124.782 146.237L125.619 146.665C126.189 146.962 126.767 147.259 127.344 147.542C127.676 147.709 128.015 147.854 128.354 148.014C128.866 148.26 129.386 148.507 129.898 148.739L130.995 149.203C131.486 149.406 131.969 149.624 132.438 149.812L132.539 149.856C132.713 149.928 132.886 149.979 133.059 150.044C133.781 150.334 134.502 150.61 135.267 150.864L136.249 151.19C136.876 151.393 137.497 151.589 138.118 151.77L138.637 151.937L139.496 152.169L140.181 152.351C140.939 152.546 141.704 152.735 142.462 152.902L143.097 153.032C143.638 153.148 144.172 153.25 144.713 153.344L145.052 153.409C145.774 153.533 146.438 153.641 147.138 153.743H147.383L147.953 153.816C148.545 153.895 149.137 153.961 149.736 154.026L150.414 154.091L150.897 154.135C151.446 154.185 152.001 154.214 152.55 154.251H152.716C153.351 154.287 153.986 154.316 154.621 154.33H155.718C156.288 154.33 156.865 154.33 157.442 154.33H158.164H158.561C159.037 154.33 159.513 154.287 160.004 154.258H160.639C161.419 154.207 162.198 154.142 162.977 154.069H163.158C164.074 153.975 164.998 153.859 165.921 153.736L166.86 153.583C167.48 153.489 168.093 153.395 168.721 153.286L168.952 153.25L169.977 153.047C170.468 152.945 170.951 152.858 171.42 152.749C171.889 152.641 172.272 152.561 172.705 152.459L174.148 152.118L175.447 151.778L176.89 151.379C177.33 151.255 177.77 151.118 178.203 150.987C178.636 150.857 179.192 150.697 179.647 150.537L180.051 150.414L181.35 149.979L182.187 149.696C183.053 149.392 183.919 149.08 184.792 148.753C192.926 145.609 200.787 141.793 208.295 137.345C209.257 136.78 210.2 136.216 211.123 135.656H211.16L211.528 135.431L213.765 134.038L214.623 133.48L216.24 132.428L217.171 131.797C217.654 131.471 218.123 131.152 218.614 130.826L219.538 130.18C219.985 129.861 220.425 129.542 220.851 129.223C221.147 129.012 221.435 128.802 221.717 128.585C222.15 128.265 222.561 127.946 222.98 127.62L223.759 127.018C224.199 126.67 224.618 126.293 225.043 125.974L225.657 125.466C226.27 124.951 226.862 124.436 227.425 123.929L228.11 123.305C228.377 123.058 228.623 122.812 228.875 122.58L229.229 122.239C229.72 121.76 230.181 121.281 230.622 120.788L230.91 120.462C231.249 120.085 231.581 119.737 231.892 119.331L232.252 118.888C232.353 118.765 232.462 118.642 232.555 118.518C232.808 118.199 233.039 117.887 233.277 117.568L233.378 117.423C233.732 116.93 234.064 116.437 234.367 115.973C234.54 115.69 234.713 115.407 234.872 115.124C234.944 114.986 235.002 114.863 235.074 114.733C235.146 114.602 235.298 114.305 235.399 114.094C235.5 113.884 235.673 113.514 235.796 113.224C235.918 112.934 235.983 112.811 236.063 112.6C236.142 112.39 236.149 112.404 236.185 112.303C236.315 111.969 236.423 111.636 236.524 111.302C236.669 110.838 236.784 110.374 236.878 109.917C236.896 109.86 236.91 109.802 236.921 109.743C236.921 109.656 236.921 109.569 236.965 109.482C237.008 109.264 237.037 109.047 237.066 108.829C237.094 108.612 237.109 108.51 237.123 108.35C237.138 108.191 237.159 107.915 237.174 107.698C237.174 107.596 237.174 107.495 237.174 107.393C237.174 107.292 237.174 107.161 237.174 107.038L237.246 79.7108C237.246 79.9284 237.246 80.1532 237.246 80.3708" fill="#1F3F72"/>
<path d="M227.569 96.5363C222.758 100.859 216.389 105.338 208.461 109.975C200.955 114.422 193.096 118.238 184.965 121.383C177.974 124.092 170.663 125.879 163.215 126.699C156.315 127.423 149.344 127.041 142.563 125.568C135.431 123.946 128.595 121.218 122.3 117.481C115.598 113.584 110.97 109.675 108.416 105.754C105.861 101.833 105.212 97.7861 106.467 93.6136C107.713 89.5039 110.72 85.2879 115.488 80.9654C120.255 76.643 126.711 72.1006 134.856 67.3382C142.343 62.8739 150.19 59.0505 158.315 55.9085C165.343 53.2473 172.682 51.5046 180.152 50.7231C187.146 49.9956 194.212 50.4021 201.078 51.927C208.063 53.5469 214.761 56.2246 220.945 59.8683C227.819 63.8571 232.483 67.8096 234.937 71.7259C236.119 73.4868 236.888 75.4942 237.187 77.597C237.486 79.6999 237.306 81.8434 236.661 83.8664C235.406 87.9761 232.375 92.1945 227.569 96.5218V96.5363ZM156.851 108.713C163.624 107.035 172.825 102.802 184.452 96.0141C196.167 89.1727 203.416 83.8084 206.202 79.9211C208.987 76.0338 208.069 72.7558 203.445 70.0869C198.885 67.4374 193.254 66.9249 186.552 68.5494C179.851 70.1739 170.607 74.4286 158.821 81.3136C147.275 88.0534 140.078 93.4008 137.23 97.3558C134.382 101.311 135.241 104.611 139.806 107.255C144.381 109.91 150.058 110.393 156.836 108.706" fill="#2673F0"/>
<path d="M305.958 138.607L305.879 165.934L249.463 170.772L249.542 143.445L305.958 138.607Z" fill="#395D96"/>
<path d="M256.636 167.414L256.556 194.748L214.602 170.402L214.681 143.075L256.636 167.414Z" fill="#1F3F72"/>
<path d="M352.445 138.382L352.365 165.717L296.736 198.2L296.815 170.873L352.445 138.382Z" fill="#395D96"/>
<path d="M292.637 188.308L292.558 215.635L279.684 208.165L279.756 180.838L292.637 188.308Z" fill="#1F3F72"/>
<path d="M309.696 178.343L309.617 205.67L292.558 215.635L292.637 188.308L309.696 178.343Z" fill="#395D96"/>
<path d="M257.422 193.878L257.35 221.205L234.222 207.788L234.302 180.461L257.422 193.878Z" fill="#1F3F72"/>
<path d="M279.756 180.838L279.684 208.165L257.343 221.205L257.422 193.878L279.756 180.838Z" fill="#395D96"/>
<path d="M296.822 170.895L309.696 178.372L292.637 188.301L279.763 180.831L257.429 193.885L234.301 180.468L256.635 167.414L214.681 143.067L232.375 132.733L328.552 124.516L352.444 138.382L296.822 170.895ZM273.694 157.478L305.965 138.622L249.549 143.452L273.694 157.463" fill="#2673F0"/>
</svg>
