<svg width="351" height="275" viewBox="0 0 351 275" fill="none" xmlns="http://www.w3.org/2000/svg">
<g clip-path="url(#clip0)">
<g opacity="0.4">
<path opacity="0.4" d="M234.168 231.245C251.046 240.989 265.37 239.976 249.733 251.49C209.585 281.038 190.281 276.301 173.403 266.556L99.9548 224.14C83.0622 214.395 93.1635 192.751 109.942 183.035C126.72 173.319 143.827 179.083 160.719 188.842L234.168 231.245Z" fill="#D6D8E5"/>
</g>
<path d="M259.221 122.285C259.221 122.728 259.149 123.184 259.064 123.641C258.992 124.011 258.901 124.378 258.793 124.739C258.678 125.167 258.579 125.595 258.422 126.023C258.265 126.451 258.136 126.722 257.979 127.079C257.822 127.436 257.594 127.978 257.352 128.42C257.109 128.863 256.966 129.062 256.781 129.376C256.595 129.69 256.139 130.389 255.768 130.874C255.397 131.359 255.04 131.83 254.627 132.301C254.527 132.401 254.441 132.515 254.341 132.629C253.785 133.243 253.171 133.828 252.529 134.413C252.115 134.784 251.659 135.14 251.202 135.511C250.746 135.882 250.432 136.153 250.004 136.453C249.576 136.752 248.977 137.152 248.449 137.494C247.921 137.837 247.393 138.208 246.808 138.536C245.49 139.296 244.133 139.987 242.742 140.605L241.515 141.118C240.421 141.594 239.294 142.022 238.133 142.402C237.72 142.545 237.306 142.702 236.892 142.83C236.165 143.059 235.466 143.258 234.667 143.472C233.868 143.686 233.554 143.786 232.969 143.929C232.384 144.072 231.385 144.271 230.586 144.428C230.044 144.542 229.516 144.671 228.96 144.756C227.347 145.042 225.707 145.27 224.066 145.441L222.525 145.57C221.555 145.655 220.585 145.727 219.672 145.769C219.058 145.769 218.43 145.769 217.803 145.769C217.175 145.769 216.233 145.769 215.448 145.769C214.664 145.769 214.122 145.769 213.465 145.769C212.809 145.769 212.039 145.769 211.282 145.655L209.285 145.498L207.145 145.256L205.219 144.985L202.922 144.585L201.138 144.228C200.239 144.029 199.355 143.8 198.47 143.572L197.044 143.173C195.46 142.702 193.919 142.188 192.421 141.603C191.679 141.318 190.994 141.004 190.252 140.69C189.881 140.519 189.496 140.376 189.139 140.205C188.055 139.677 186.985 139.135 185.972 138.55L112.495 96.1333C104.006 91.2253 99.7689 84.7908 99.7831 78.3562L99.4692 193.337C99.4692 199.771 103.749 206.177 112.181 211.099L185.53 253.545C186.557 254.13 187.613 254.672 188.697 255.186C189.054 255.357 189.453 255.514 189.824 255.671C190.466 255.956 191.094 256.256 191.75 256.512L191.979 256.598C193.477 257.183 195.018 257.697 196.601 258.153L196.972 258.282L198.085 258.553C198.97 258.781 199.854 259.009 200.753 259.209C200.996 259.209 201.224 259.337 201.466 259.38L202.551 259.566C203.307 259.708 204.063 259.851 204.834 259.965L205.747 260.122C206.075 260.122 206.417 260.193 206.76 260.236C207.473 260.336 208.186 260.407 208.914 260.479L209.927 260.593H210.897L213.08 260.707H214.179H218.587H219.286C220.271 260.707 221.227 260.593 222.14 260.522L223.324 260.436H223.681C225.336 260.265 226.962 260.036 228.589 259.751H228.817C229.288 259.666 229.73 259.537 230.244 259.452C231.043 259.299 231.842 259.128 232.641 258.938L234.324 258.481C235.066 258.282 235.822 258.082 236.55 257.854L237.021 257.711C237.292 257.625 237.52 257.511 237.791 257.426C238.942 257.026 240.069 256.598 241.172 256.141L242.414 255.614C243.84 254.986 245.182 254.301 246.48 253.559L246.993 253.245C247.393 253.003 247.735 252.746 248.106 252.503C248.477 252.261 249.176 251.833 249.661 251.476C250.147 251.119 250.475 250.834 250.86 250.52C251.245 250.206 251.773 249.807 252.187 249.422L252.458 249.208C253 248.694 253.514 248.18 253.999 247.652L254.284 247.31C254.569 246.982 254.869 246.668 255.126 246.34C255.383 246.012 255.311 246.04 255.426 245.898C255.796 245.398 256.125 244.899 256.438 244.385C256.567 244.185 256.738 243.971 256.852 243.757C256.913 243.652 256.966 243.543 257.009 243.429C257.244 242.995 257.454 242.547 257.637 242.088C257.751 241.831 257.908 241.575 258.008 241.318C258.108 241.061 258.008 241.132 258.008 241.047C258.165 240.619 258.265 240.176 258.379 239.748C258.479 239.463 258.565 239.172 258.636 238.878C258.636 238.807 258.636 238.735 258.636 238.65C258.636 238.193 258.75 237.751 258.778 237.294C258.807 236.838 258.878 236.709 258.892 236.41V236.025L259.221 121.058C259.24 121.467 259.24 121.877 259.221 122.285Z" fill="#D5D7E2"/>
<path d="M246.623 103.295C263.487 113.04 263.587 128.848 246.808 138.593C230.03 148.337 202.736 148.352 185.858 138.593L112.381 96.176C95.5174 86.4314 95.4175 70.6232 112.21 60.8643C129.003 51.1055 156.268 51.1197 173.146 60.8643L246.623 103.295Z" fill="#E9EAF4"/>
<path d="M136.936 193.935L146.923 166.828C143.956 162.931 142.249 158.223 142.029 153.331C142.029 147.766 145.139 144.77 149.448 145.498C150.808 145.72 152.111 146.204 153.286 146.925C159.478 150.506 164.5 159.152 164.472 166.285C164.472 170.723 162.488 173.49 159.506 174.09L166.983 203.423L169.322 212.669L136.936 193.935Z" fill="#3A4151"/>
<path d="M143.727 189.97L153.714 162.862C150.736 158.971 149.028 154.259 148.82 149.365C148.806 148.05 149.019 146.742 149.448 145.498C150.808 145.72 152.111 146.205 153.286 146.925C159.478 150.506 164.5 159.152 164.471 166.286C164.471 170.723 162.488 173.491 159.506 174.09L166.982 203.424L143.727 189.97Z" fill="#323944"/>
<path d="M155.954 20.3167C155.271 20.7352 154.627 21.2126 154.028 21.7434L153.714 22.0287C153.175 22.5696 152.696 23.1676 152.287 23.8121L151.902 24.4399L151.816 24.5969C151.739 24.7094 151.672 24.8288 151.616 24.9535C151.39 25.3765 151.195 25.8151 151.031 26.2661C151.031 26.2661 151.031 26.2661 151.031 26.3517C150.645 27.42 150.391 28.5316 150.275 29.6618V29.7902C150.193 30.4144 150.155 31.0438 150.161 31.6735L150.061 70.1953V84.0774C146.766 85.7325 143.119 86.5647 139.432 86.5028V67.7413V37.894C139.439 36.8848 139.529 35.8778 139.703 34.8836C139.703 34.6839 139.775 34.4699 139.832 34.2558C139.886 33.9759 139.958 33.6996 140.046 33.4283C140.046 33.4283 140.046 33.3427 140.046 33.2999C140.123 33.0482 140.214 32.8006 140.317 32.558C140.303 32.5164 140.303 32.4713 140.317 32.4296C140.402 32.2299 140.474 32.0444 140.559 31.8589C140.602 31.6952 140.665 31.5372 140.745 31.3881C140.796 31.322 140.839 31.2502 140.873 31.1741C141.051 30.791 141.261 30.4235 141.501 30.0755C141.501 30.0755 141.501 30.0755 141.572 30.0755C141.784 29.7594 142.013 29.4546 142.257 29.1624C142.514 28.877 142.771 28.5917 143.042 28.3206C143.124 28.2035 143.231 28.1061 143.356 28.0353C143.645 27.7652 143.95 27.5127 144.269 27.2791C144.541 27.0563 144.838 26.8649 145.153 26.7084C145.243 26.6303 145.339 26.5588 145.439 26.4944L155.954 20.3167Z" fill="#323944"/>
<path d="M233.996 78.8128V80.1254L233.896 118.262V132.287C230.63 133.887 227.032 134.694 223.396 134.641H223.267V115.879L223.338 86.3174C223.344 84.7538 223.258 83.1913 223.082 81.6377C222.996 80.8815 222.896 80.0968 222.768 79.3121C222.768 79.2123 222.768 79.0839 222.768 78.9697C222.668 78.3705 222.568 77.7427 222.425 77.1435C222.439 77.0584 222.439 76.9717 222.425 76.8867C222.111 75.3743 221.74 73.8335 221.298 72.2926C221.298 72.0786 221.17 71.8931 221.113 71.6934C220.913 71.0085 220.699 70.3522 220.471 69.6817C220.242 69.0111 219.943 68.1123 219.657 67.3276C219.372 66.5429 219.101 65.9008 218.816 65.1875C218.459 64.2458 218.031 63.3042 217.617 62.334C217.562 62.2348 217.519 62.1295 217.489 62.0201C217.489 62.0201 217.489 61.9488 217.403 61.8917C216.647 60.2224 215.82 58.5246 214.906 56.8553C214.564 56.1705 214.193 55.5142 213.808 54.8436C213.308 53.9448 212.809 53.0602 212.267 52.1757C211.725 51.2911 211.054 50.3209 210.455 49.4078C210.17 48.937 209.884 48.4661 209.57 47.9811L209.257 47.5102C209.204 47.4274 209.141 47.3508 209.071 47.282C206.902 44.0951 204.569 41.0234 202.08 38.0795C201.923 37.8798 201.738 37.6943 201.581 37.5088C200.425 36.0821 199.255 34.8123 198.028 33.5425C197.863 33.3385 197.681 33.1477 197.486 32.9718C196.858 32.3155 196.23 31.6592 195.574 31.0029C194.918 30.3466 194.062 29.4906 193.277 28.763C192.093 27.6644 190.923 26.5658 189.696 25.4957C187.584 23.6695 185.416 21.9384 183.19 20.3024L181.892 19.3608C179.492 17.6339 177.006 16.0291 174.444 14.5527C173.574 14.0533 172.746 13.6111 171.905 13.126C171.063 12.6409 170.021 12.1558 169.051 11.6992C168.409 11.3854 167.753 11.1 167.125 10.8146L166.312 10.4437L165.342 10.0585C163.601 9.33084 161.875 8.63175 160.177 8.1752C160.111 8.16034 160.044 8.1508 159.977 8.14666L159.349 7.98972C159.064 7.87558 158.779 7.83278 158.522 7.74717C158.265 7.66157 157.809 7.53317 157.48 7.46183H157.395L156.696 7.30489C156.068 7.14795 155.483 7.01954 154.884 6.91967C154.556 6.83406 154.185 6.79125 153.842 6.73418C153.781 6.72063 153.718 6.72063 153.657 6.73418L152.387 6.52018H152.087C151.302 6.40707 150.512 6.33564 149.719 6.30618C149.217 6.24963 148.712 6.22103 148.207 6.22056H147.45C146.678 6.21482 145.907 6.25293 145.139 6.3347H144.996H144.411C144.167 6.34762 143.924 6.37621 143.684 6.4203C143.463 6.43747 143.244 6.47086 143.028 6.52018H142.956C142.771 6.52018 142.585 6.60578 142.4 6.62004C141.958 6.70565 141.515 6.777 141.073 6.90541C141.002 6.89419 140.93 6.89419 140.859 6.90541C140.735 6.90641 140.613 6.93568 140.502 6.99101C140.181 7.05983 139.866 7.15527 139.561 7.27635C139.314 7.32595 139.071 7.39269 138.833 7.47609C138.833 7.47609 138.747 7.47609 138.719 7.47609C138.69 7.47609 138.719 7.47609 138.719 7.47609C138.193 7.65318 137.678 7.86285 137.178 8.10386L136.993 8.1752C136.661 8.32444 136.337 8.49111 136.022 8.67454C135.804 8.75894 135.593 8.86404 135.395 8.98843L146.052 2.79641C147.121 2.18291 148.243 1.66719 149.405 1.25553C149.447 1.24239 149.492 1.24239 149.533 1.25553C150.465 0.928435 151.419 0.666236 152.387 0.470825L152.701 0.385224H153.058C153.714 0.256818 154.399 0.185486 155.069 0.0998818H155.511H155.654C156.453 0.0998818 157.266 0 158.122 0H158.55C159.207 0 159.863 0 160.548 0H160.648C160.99 0 161.347 0.0856145 161.689 0.0998818L163.03 0.242564H163.159C163.601 0.242564 164.043 0.399496 164.514 0.456565C164.985 0.513635 165.17 0.556444 165.499 0.642048H165.613C166.397 0.798988 167.196 0.984449 168.038 1.18419C168.823 1.36967 169.622 1.59795 170.407 1.8405C170.449 1.82821 170.493 1.82821 170.535 1.8405C170.812 1.91147 171.084 2.00206 171.348 2.11158C171.876 2.26852 172.375 2.42545 172.861 2.61093C172.96 2.63091 173.056 2.66453 173.146 2.71081C173.487 2.81082 173.821 2.93477 174.145 3.08175C174.53 3.23869 174.929 3.36709 175.343 3.52403C175.495 3.60261 175.652 3.66938 175.814 3.72378L176.884 4.1946C177.198 4.32301 177.512 4.43714 177.826 4.59408C178.071 4.69069 178.31 4.80515 178.539 4.93651C178.92 5.08447 179.292 5.25601 179.652 5.45013C179.894 5.55 180.123 5.66415 180.365 5.79256C180.608 5.92096 181.021 6.10642 181.321 6.26336C181.621 6.4203 182.063 6.6486 182.42 6.86261C182.604 6.93089 182.78 7.01689 182.948 7.11941L184.988 8.24654C185.188 8.37495 185.402 8.47481 185.587 8.61748C186.5 9.13111 187.385 9.68752 188.269 10.2582C188.726 10.515 189.168 10.8289 189.61 11.1143C189.826 11.2779 190.05 11.4302 190.281 11.5708L190.966 12.0274C191.879 12.6551 192.763 13.2829 193.662 13.9392L194.49 14.5955C194.747 14.781 195.018 14.9522 195.275 15.1662C195.531 15.3802 196.002 15.7226 196.373 16.0365C197.315 16.7356 198.199 17.4632 199.112 18.2479L199.398 18.5047C199.574 18.6458 199.741 18.7983 199.897 18.9613C200.525 19.4749 201.153 20.0028 201.78 20.5735C202.408 21.1442 203.136 21.8005 203.792 22.4568C203.925 22.5559 204.044 22.6709 204.149 22.7992C204.222 22.8359 204.286 22.8898 204.334 22.9562C205.171 23.7456 205.985 24.5446 206.774 25.3531L208.015 26.6657C208.201 26.8369 208.386 27.0509 208.572 27.2364C208.757 27.4218 208.886 27.5502 209.043 27.7357C209.742 28.4919 210.469 29.3051 211.154 30.0755C211.497 30.4465 211.81 30.846 212.124 31.2027L212.595 31.7734C212.781 31.9874 212.98 32.2014 213.137 32.4011C213.851 33.2429 214.493 34.0561 215.149 34.8837C215.392 35.1975 215.62 35.5114 215.877 35.8253C216.133 36.1392 216.276 36.3246 216.462 36.5814L217.218 37.5802C217.845 38.4362 218.445 39.3351 219.073 40.1911L219.772 41.2041L219.957 41.4752C220.328 41.9888 220.642 42.5737 220.999 43.0874C221.683 44.186 222.425 45.256 223.039 46.326L223.281 46.7255C224.038 47.9525 224.708 49.208 225.393 50.4493C225.393 50.5634 225.493 50.6633 225.55 50.7632C225.625 50.8919 225.692 51.0254 225.75 51.1627C226.063 51.7619 226.377 52.3326 226.677 52.9318C226.977 53.5311 227.276 54.1446 227.562 54.7438C227.718 55.0719 227.847 55.4144 228.004 55.7282C228.056 55.8287 228.099 55.9337 228.132 56.0421C228.218 56.1991 228.289 56.3845 228.375 56.5415C228.632 57.1122 228.86 57.6686 229.102 58.2393C229.345 58.81 229.545 59.3379 229.773 59.88C229.887 60.1654 229.987 60.465 230.087 60.7503C230.113 60.8499 230.151 60.9459 230.201 61.0357C230.258 61.2106 230.324 61.3821 230.401 61.5493C230.586 62.1342 230.8 62.6764 230.986 63.2328C231.171 63.7893 231.342 64.3457 231.499 64.9021C231.585 65.1589 231.656 65.4157 231.742 65.6868C231.827 65.9579 231.742 65.8723 231.813 65.9722C231.886 66.1684 231.948 66.3684 231.999 66.5714C232.156 67.1421 232.313 67.6985 232.441 68.2407C232.569 68.7828 232.698 69.3107 232.812 69.8386C232.812 70.0669 232.912 70.338 232.969 70.5663C232.962 70.647 232.962 70.7281 232.969 70.8088C232.969 71.0085 233.054 71.2225 233.083 71.408C233.183 71.9216 233.268 72.4495 233.368 72.9489C233.468 73.4482 233.497 73.9333 233.582 74.3756C233.668 74.8179 233.582 74.9749 233.654 75.2887C233.667 75.3498 233.667 75.4131 233.654 75.4742C233.661 75.5978 233.661 75.7216 233.654 75.8452C233.654 76.316 233.739 76.8011 233.768 77.2719C233.796 77.7427 233.968 78.3705 233.996 78.8128Z" fill="#323944"/>
<path d="M223.367 86.3172L223.296 115.879V134.641C216.918 134.641 211.468 132.358 209.028 129.148V121.343L209.157 78.0849C209.157 63.4609 193.277 41.8887 174.387 31.0027C165.898 26.0948 157.994 24.0402 151.845 24.6109C149.645 24.7656 147.502 25.3779 145.553 26.4086C145.453 26.473 145.358 26.5445 145.268 26.6226C144.953 26.7806 144.657 26.9719 144.383 27.1933C144.056 27.4167 143.75 27.6698 143.47 27.9495C143.346 28.0203 143.238 28.1177 143.156 28.2349C142.862 28.4836 142.599 28.7661 142.371 29.0766C142.11 29.3544 141.88 29.6607 141.687 29.9897C141.687 29.9897 141.687 29.9897 141.615 29.9897C141.376 30.3377 141.166 30.7052 140.988 31.0883C140.854 31.3024 140.749 31.5325 140.674 31.7731C140.566 31.951 140.485 32.1432 140.431 32.3439C140.417 32.3855 140.417 32.4306 140.431 32.4723C140.31 32.7534 140.215 33.0446 140.146 33.3426C140.058 33.6138 139.986 33.8901 139.932 34.1701C139.877 34.3766 139.834 34.5862 139.803 34.7978C139.629 35.792 139.539 36.799 139.532 37.8082V67.6555V86.417C133.24 86.417 127.805 84.2484 125.265 81.1096V72.9344L125.165 29.5474C125.165 19.3891 129.188 12.3125 135.866 8.78846C136.18 8.60503 136.504 8.43836 136.836 8.28912L137.021 8.21778C137.521 7.97677 138.036 7.7671 138.562 7.59001C138.834 7.47847 139.116 7.39248 139.404 7.33319C139.709 7.21211 140.024 7.11667 140.345 7.04785C140.456 6.99252 140.578 6.96324 140.702 6.96225C140.773 6.95103 140.845 6.95103 140.916 6.96225L141.572 6.81959C141.793 6.75843 142.017 6.71077 142.243 6.6769C142.429 6.6769 142.614 6.60556 142.799 6.57702H142.871C143.087 6.5277 143.306 6.49433 143.527 6.47716C143.768 6.43307 144.011 6.40448 144.255 6.39156C144.497 6.36974 144.74 6.36974 144.982 6.39156C145.75 6.30979 146.522 6.27168 147.294 6.27742H148.05C148.555 6.27789 149.06 6.30646 149.562 6.36302C150.355 6.39248 151.145 6.46391 151.931 6.57702C152.457 6.62396 152.981 6.70017 153.5 6.8053C153.561 6.79175 153.624 6.79175 153.685 6.8053C154.028 6.8053 154.399 6.90518 154.727 6.99079C155.326 7.09066 155.911 7.21907 156.539 7.37601C157.167 7.53295 157.737 7.66134 158.365 7.84681C158.622 7.93242 158.907 7.97524 159.193 8.08938L160.034 8.31764C161.732 8.84553 163.459 9.4733 165.199 10.2009C165.813 10.4292 166.383 10.7003 166.983 10.9571C167.582 11.2139 168.267 11.5278 168.909 11.8417L170.592 12.6834C170.949 12.8832 171.348 13.0687 171.705 13.2541C172.547 13.725 173.374 14.1673 174.245 14.6809C176.806 16.1573 179.292 17.762 181.692 19.489L182.991 20.4306C185.216 22.0666 187.385 23.7977 189.496 25.6239C190.723 26.694 191.893 27.7926 193.078 28.8911C193.862 29.6188 194.618 30.3179 195.375 31.1311C196.131 31.9444 196.659 32.4437 197.286 33.1C197.482 33.2759 197.663 33.4667 197.829 33.6707C199.056 34.9405 200.225 36.2816 201.381 37.637C201.538 37.8225 201.724 38.008 201.88 38.2077C204.369 41.1516 206.703 44.2233 208.871 47.4102C209.054 47.6313 209.221 47.8649 209.371 48.1092C210.312 49.536 211.197 50.8771 212.067 52.2896C212.61 53.1742 213.109 54.0587 213.608 54.9576C213.993 55.6281 214.364 56.2844 214.707 56.9693C215.62 58.6385 216.447 60.3364 217.204 62.0056C217.289 62.1626 217.361 62.3195 217.418 62.4479C217.831 63.3896 218.259 64.3312 218.616 65.3014C218.901 66.0005 219.187 66.7281 219.458 67.4415C219.729 68.1549 220.029 69.0109 220.271 69.7956C220.514 70.5803 220.713 71.1225 220.913 71.8073C220.913 72.007 221.042 72.1925 221.099 72.4065C221.541 73.9474 221.94 75.4883 222.226 77.0006C222.239 77.0857 222.239 77.1724 222.226 77.2574C222.368 77.8567 222.468 78.4844 222.568 79.0836C222.568 79.1978 222.568 79.3262 222.568 79.4261C222.697 80.2108 222.796 80.9669 222.882 81.7516C223.13 83.263 223.292 84.7874 223.367 86.3172Z" fill="#3A4151"/>
</g>
<defs>
<clipPath id="clip0">
<rect width="350.74" height="274.02" fill="white"/>
</clipPath>
</defs>
</svg>
