<svg width="210" height="275" viewBox="0 0 210 275" fill="none" xmlns="http://www.w3.org/2000/svg">
<path d="M177.613 130.842L5.11977 31.2576C4.82937 31.053 4.49375 30.9217 4.14158 30.8748C3.78941 30.828 3.43114 30.8672 3.09737 30.9888L2.92457 31.0912L1.04297 32.1792L2.12457 33.7088V149.722C2.18125 150.77 2.48431 151.791 3.00916 152.7C3.534 153.61 4.26586 154.383 5.14537 154.957L177.401 254.426L177.645 255.968L179.737 254.758C180.048 254.542 180.295 254.246 180.453 253.902C180.61 253.557 180.673 253.177 180.633 252.8V136.077C180.577 135.028 180.274 134.008 179.749 133.098C179.224 132.189 178.492 131.415 177.613 130.842Z" fill="#D6D8E5"/>
<path d="M178.534 137.293V254.01C178.534 255.93 177.19 256.717 175.514 255.75L3.0208 156.16C2.1413 155.586 1.40944 154.813 0.88459 153.904C0.359741 152.994 0.0566837 151.973 0 150.925V34.2144C0 32.2944 1.3504 31.5008 3.0208 32.4672L175.514 132.058C176.394 132.63 177.127 133.403 177.652 134.313C178.177 135.223 178.479 136.244 178.534 137.293Z" fill="#FAFBFC"/>
<path d="M112.717 113.978L6.80322 52.8256V46.72L112.717 107.872V113.978Z" fill="#E9EAF2"/>
<path d="M107.226 118.4L6.80322 60.416V57.3632L107.226 115.347V118.4Z" fill="#E9EAF2"/>
<path d="M95.5392 117.12L6.80322 65.8817V62.8289L95.5392 114.067V117.12Z" fill="#E9EAF2"/>
<path d="M89.9008 119.328L6.80322 71.3536V68.3008L89.9008 116.275V119.328Z" fill="#E9EAF2"/>
<path d="M171.437 193.299L132.519 170.829V164.723L171.437 187.187V193.299Z" fill="#E9EAF2"/>
<path d="M169.421 199.725L132.519 178.419V175.366L169.421 196.672V199.725Z" fill="#E9EAF2"/>
<path d="M165.127 202.714L132.519 183.885V180.832L165.127 199.661V202.714Z" fill="#E9EAF2"/>
<path d="M163.053 206.982L132.519 189.357V186.304L163.053 203.93V206.982Z" fill="#E9EAF2"/>
<path d="M112.717 147.078L6.80322 85.9264V79.8208L112.717 140.973V147.078Z" fill="#E9EAF2"/>
<path d="M107.226 151.501L6.80322 93.5232V90.464L107.226 148.448V151.501Z" fill="#E9EAF2"/>
<path d="M95.5392 150.221L6.80322 98.9888V95.936L95.5392 147.168V150.221Z" fill="#E9EAF2"/>
<path d="M89.9008 152.435L6.80322 104.454V101.402L89.9008 149.376V152.435Z" fill="#E9EAF2"/>
<path d="M112.717 180.186L6.80322 119.034V112.922L112.717 174.08V180.186Z" fill="#E9EAF2"/>
<path d="M107.226 184.608L6.80322 126.624V123.571L107.226 181.549V184.608Z" fill="#E9EAF2"/>
<path d="M95.5392 183.328L6.80322 132.09V129.037L95.5392 180.269V183.328Z" fill="#E9EAF2"/>
<path d="M89.9008 185.536L6.80322 137.562V134.503L89.9008 182.483V185.536Z" fill="#E9EAF2"/>
<path d="M112.717 213.286L6.80322 152.134V146.029L112.717 207.181V213.286Z" fill="#E9EAF2"/>
<path d="M107.232 214.656V216.333L6.80322 158.349V156.672L107.232 214.656Z" fill="#E9EAF2"/>
<path d="M170.227 180.282L133.747 159.213C133.379 158.948 133.079 158.602 132.869 158.201C132.659 157.8 132.545 157.355 132.537 156.902V120.915C132.537 120.026 133.081 119.635 133.747 120L170.227 141.069C170.594 141.333 170.895 141.68 171.105 142.081C171.315 142.482 171.428 142.927 171.436 143.379V179.366C171.436 180.256 170.892 180.666 170.227 180.282Z" fill="#E9EAF2"/>
<path d="M177.613 99.9488L5.1201 0.358425C4.84317 0.165206 4.52164 0.0456169 4.18576 0.010909C3.84988 -0.0237989 3.51068 0.0275158 3.2001 0.160025H3.1617L1.2417 1.23523L2.0865 2.60483V21.5296C2.0865 23.7504 3.4433 26.336 5.1137 27.2896L177.242 126.682L177.331 128.294L179.514 127.091L179.565 127.059L179.629 127.027C180.269 126.65 180.634 125.805 180.634 124.614V105.728C180.634 103.501 179.277 100.915 177.613 99.9488Z" fill="#D6D8E5"/>
<path d="M175.514 128.058L3.0208 28.4672C1.3504 27.5008 0 24.9152 0 22.7072V3.83999C0 1.61919 1.3504 0.595187 3.0208 1.55519L175.514 101.12C177.184 102.086 178.541 104.672 178.541 106.88V125.766C178.541 128 177.184 129.018 175.514 128.058Z" fill="#FAFBFC"/>
<path d="M170.227 116.538L8.01267 22.8864C7.64778 22.6208 7.35009 22.2736 7.14339 21.8724C6.93669 21.4712 6.82672 21.0273 6.82227 20.576V13.792C6.82227 12.9024 7.35987 12.512 8.03187 12.8768L170.227 106.534C170.595 106.798 170.896 107.145 171.106 107.546C171.316 107.947 171.43 108.392 171.437 108.845V115.622C171.437 116.518 170.893 116.928 170.227 116.538Z" fill="#E9EAF2"/>
<path d="M170.528 116.717L160.039 110.656V100.653L170.528 106.707C170.896 106.971 171.197 107.317 171.407 107.719C171.617 108.12 171.731 108.565 171.738 109.018V115.802C171.738 116.691 171.194 117.12 170.528 116.717Z" fill="#2673F0"/>
<path d="M12.2433 20.1792C11.8832 19.8764 11.5666 19.5253 11.3025 19.136C11.1271 18.8599 11.0298 18.5414 11.0209 18.2144C11.0209 17.8731 11.1361 17.6598 11.3665 17.5744C11.5237 17.5368 11.6873 17.5346 11.8456 17.5678C12.0038 17.6009 12.1528 17.6688 12.2817 17.7664C12.7889 18.0617 13.1899 18.5097 13.4273 19.0464C13.5344 19.2839 13.5911 19.5411 13.5937 19.8016L13.1009 19.5136C13.1001 19.2534 13.027 18.9986 12.8897 18.7776C12.7379 18.5398 12.5289 18.3439 12.2817 18.208C12.2025 18.1468 12.1119 18.1022 12.0151 18.0769C11.9183 18.0516 11.8174 18.0461 11.7185 18.0608C11.5841 18.1056 11.5137 18.24 11.5137 18.4576C11.5206 18.6582 11.5875 18.8522 11.7057 19.0144C11.8872 19.278 12.1023 19.5169 12.3457 19.7248C12.6188 19.9563 12.8735 20.2088 13.1073 20.48C13.266 20.6745 13.3974 20.8898 13.4977 21.12C13.5792 21.3235 13.6205 21.5408 13.6193 21.76C13.6193 22.1056 13.5041 22.3168 13.2673 22.4C12.9356 22.4494 12.5978 22.3667 12.3265 22.1696C12.0606 22.0112 11.8192 21.815 11.6097 21.5872C11.401 21.3611 11.2283 21.1042 11.0977 20.8256C10.9846 20.5828 10.9235 20.319 10.9185 20.0512L11.4113 20.3392C11.4156 20.6105 11.5026 20.874 11.6609 21.0944C11.824 21.3527 12.0426 21.5713 12.3009 21.7344C12.4726 21.8597 12.6847 21.9167 12.8961 21.8944C13.0369 21.8496 13.1009 21.7216 13.1009 21.5104C13.0992 21.2971 13.0322 21.0893 12.9089 20.9152C12.7155 20.6456 12.4922 20.3987 12.2433 20.1792Z" fill="#B0B3C1"/>
<path d="M15.3214 23.9297C14.9357 23.7003 14.6195 23.3708 14.4062 22.9761C14.1758 22.5656 14.0546 22.1028 14.0542 21.6321V21.5361C14.0409 21.2727 14.0961 21.0103 14.2142 20.7745C14.256 20.6897 14.3171 20.616 14.3928 20.5593C14.4684 20.5026 14.5563 20.4645 14.6494 20.4481C14.8728 20.4132 15.1012 20.4634 15.2894 20.5889C15.6499 20.7969 15.9415 21.1062 16.1277 21.4785C16.3341 21.8982 16.4372 22.3612 16.4285 22.8289V23.0401L14.5022 21.9713C14.5095 22.2865 14.5906 22.5955 14.739 22.8737C14.868 23.1382 15.0701 23.3603 15.3214 23.5137C15.4456 23.5989 15.5931 23.6436 15.7438 23.6417C15.8593 23.6314 15.9677 23.5817 16.0509 23.5009L16.3389 23.9297C16.1341 24.1921 15.7822 24.1985 15.3214 23.9297ZM15.2638 21.0369C15.196 20.9847 15.1147 20.9533 15.0295 20.9465C14.9443 20.9397 14.8589 20.9577 14.7838 20.9985C14.7069 21.0649 14.6457 21.1476 14.6048 21.2406C14.5638 21.3336 14.5441 21.4345 14.547 21.5361L15.9293 22.3361V22.2913C15.9229 22.0275 15.8549 21.769 15.731 21.5361C15.6262 21.3284 15.464 21.1552 15.2638 21.0369Z" fill="#B0B3C1"/>
<path d="M18.6555 25.7921C18.6167 25.6718 18.593 25.5471 18.5851 25.4209C18.4617 25.4863 18.3224 25.5156 18.1832 25.5054C18.044 25.4952 17.9104 25.4459 17.7979 25.3633C17.5366 25.204 17.3172 24.9846 17.1579 24.7233C16.9907 24.4801 16.8993 24.1928 16.8955 23.8977C16.8955 23.5649 17.0043 23.3729 17.2219 23.3153C17.5503 23.2829 17.8789 23.3742 18.1435 23.5713L18.6043 23.8337V23.5841C18.604 23.395 18.5531 23.2094 18.4571 23.0465C18.3524 22.8693 18.2021 22.7235 18.0219 22.6241C17.897 22.5373 17.7431 22.5029 17.5931 22.5281C17.5396 22.5443 17.4936 22.5788 17.4631 22.6257C17.4327 22.6725 17.4198 22.7286 17.4267 22.7841L16.9467 22.5089C16.9439 22.4392 16.9555 22.3697 16.9808 22.3047C17.0061 22.2397 17.0447 22.1807 17.0939 22.1313C17.1489 22.0839 17.2131 22.0486 17.2826 22.0277C17.352 22.0067 17.4251 22.0006 17.4971 22.0097C17.6925 22.032 17.8806 22.0976 18.0475 22.2017C18.3532 22.3684 18.611 22.6108 18.7963 22.9057C18.9729 23.1813 19.0703 23.5001 19.0779 23.8273V25.2993C19.0728 25.5544 19.1052 25.8088 19.1739 26.0545V26.0993L18.6555 25.7921ZM17.8683 24.9601C17.9945 25.039 18.1421 25.077 18.2907 25.0689C18.3502 25.0669 18.4082 25.0493 18.4587 25.0179C18.5093 24.9864 18.5506 24.9422 18.5787 24.8897V24.2497L18.2075 24.0321C17.6315 23.6993 17.3435 23.7313 17.3435 24.1217C17.3427 24.2949 17.394 24.4644 17.4907 24.6081C17.5863 24.7542 17.7159 24.875 17.8683 24.9601Z" fill="#B0B3C1"/>
<path d="M21.1267 24.5248C21.0535 24.4664 20.9766 24.4129 20.8963 24.3648C20.5891 24.1856 20.3757 24.2176 20.2563 24.4608V26.7264L19.7891 26.4512V23.2512L20.2435 23.5136V23.8848C20.3971 23.6928 20.6147 23.6736 20.8835 23.84C20.9599 23.882 21.029 23.936 21.0883 24L21.1267 24.5248Z" fill="#B0B3C1"/>
<path d="M22.624 27.6992C22.6874 27.7438 22.7598 27.7738 22.8362 27.7871C22.9126 27.8004 22.9909 27.7966 23.0656 27.776C23.1295 27.7509 23.1841 27.7067 23.2219 27.6495C23.2597 27.5922 23.2789 27.5246 23.2768 27.456L23.7184 27.712C23.7198 27.8698 23.6628 28.0225 23.5584 28.1408C23.5059 28.1942 23.4431 28.2365 23.3738 28.2651C23.3045 28.2937 23.2302 28.308 23.1552 28.3072C22.9671 28.3022 22.7837 28.2469 22.624 28.1472C22.2395 27.9226 21.9282 27.5914 21.728 27.1936C21.5021 26.768 21.3855 26.293 21.3888 25.8112V25.7152C21.3753 25.4545 21.4281 25.1947 21.5424 24.96C21.5805 24.8763 21.6393 24.8036 21.7132 24.7487C21.787 24.6939 21.8736 24.6587 21.9648 24.6464C22.1914 24.6314 22.4165 24.6922 22.6048 24.8192C22.9241 25.0051 23.1907 25.2694 23.3792 25.5872C23.5753 25.8943 23.6878 26.2473 23.7056 26.6112L23.264 26.3552C23.2458 26.129 23.1757 25.91 23.0592 25.7152C22.9469 25.5273 22.7911 25.3693 22.6048 25.2544C22.3659 25.1221 22.1803 25.1221 22.048 25.2544C21.8888 25.4696 21.8178 25.7374 21.8496 26.0032V26.1056C21.8439 26.4384 21.9117 26.7683 22.048 27.072C22.1703 27.3357 22.3716 27.5549 22.624 27.6992Z" fill="#B0B3C1"/>
<path d="M24.7425 26.4961C24.8575 26.4003 25.0024 26.3478 25.1521 26.3478C25.3017 26.3478 25.4467 26.4003 25.5617 26.4961C25.8458 26.6661 26.0771 26.9117 26.2297 27.2055C26.3822 27.4994 26.4501 27.8299 26.4257 28.1601V30.2721L25.9521 29.9969V27.8849C25.9583 27.6803 25.9121 27.4776 25.8177 27.2961C25.7118 27.1215 25.5617 26.978 25.3825 26.8801C25.2631 26.803 25.1201 26.7713 24.9793 26.7905C24.9201 26.8041 24.8648 26.8307 24.8172 26.8683C24.7696 26.9059 24.731 26.9537 24.7041 27.0081V29.2801L24.2305 29.0049V24.4993L24.7041 24.7681L24.7425 26.4961Z" fill="#B0B3C1"/>
<path d="M27.142 30.4128C27.1379 30.376 27.1428 30.3388 27.1562 30.3042C27.1695 30.2697 27.191 30.2389 27.2188 30.2144C27.2636 30.1824 27.3404 30.2144 27.4364 30.2144C27.5264 30.27 27.6011 30.3469 27.654 30.4384C27.7039 30.5239 27.7304 30.621 27.7308 30.72C27.7352 30.754 27.7304 30.7886 27.7169 30.8201C27.7034 30.8516 27.6817 30.8789 27.654 30.8992C27.6028 30.9312 27.5324 30.8992 27.4364 30.8992C27.3445 30.8491 27.2689 30.7736 27.2188 30.6816C27.17 30.6004 27.1435 30.5076 27.142 30.4128Z" fill="#B0B3C1"/>
<path d="M28.5184 31.2064C28.5137 31.1705 28.5183 31.134 28.5317 31.1004C28.5452 31.0668 28.567 31.0372 28.5952 31.0144C28.64 30.976 28.7168 31.0144 28.8128 31.0144C28.9004 31.0672 28.9733 31.1411 29.0248 31.2295C29.0763 31.3179 29.1046 31.4178 29.1072 31.52C29.1116 31.554 29.1067 31.5886 29.0932 31.6201C29.0797 31.6516 29.058 31.6789 29.0304 31.6992C28.9856 31.6992 28.9088 31.6992 28.8128 31.6992C28.7208 31.6492 28.6453 31.5736 28.5952 31.4816C28.5453 31.3985 28.5187 31.3034 28.5184 31.2064Z" fill="#B0B3C1"/>
<path d="M29.8944 32C29.8897 31.9641 29.8942 31.9275 29.9077 31.8939C29.9211 31.8603 29.943 31.8307 29.9712 31.808C30.016 31.7696 30.0928 31.808 30.1888 31.808C30.2819 31.8565 30.3579 31.9324 30.4064 32.0256C30.4555 32.1114 30.4819 32.2083 30.4832 32.3072C30.4874 32.3421 30.4826 32.3775 30.4691 32.41C30.4557 32.4425 30.4341 32.471 30.4064 32.4928C30.3616 32.4928 30.2848 32.4928 30.1888 32.4544C30.0968 32.4043 30.0213 32.3287 29.9712 32.2368C29.9274 32.1649 29.9011 32.0838 29.8944 32Z" fill="#B0B3C1"/>
<path d="M168.224 112.486L167.2 110.726C167.364 110.558 167.489 110.357 167.569 110.136C167.648 109.915 167.68 109.68 167.661 109.446C167.62 108.702 167.405 107.977 167.033 107.331C166.66 106.685 166.141 106.136 165.517 105.728C164.326 105.043 163.366 105.6 163.366 106.97C163.404 107.723 163.621 108.456 164 109.108C164.378 109.761 164.907 110.313 165.542 110.72C165.906 110.965 166.352 111.057 166.784 110.976L167.814 112.762C167.936 112.966 168.128 113.082 168.249 113.011C168.371 112.941 168.339 112.698 168.224 112.486ZM166.707 110.157C166.67 110.144 166.629 110.144 166.592 110.157C166.562 110.177 166.54 110.206 166.528 110.24C166.362 110.284 166.188 110.293 166.018 110.265C165.848 110.238 165.686 110.175 165.542 110.08C165.073 109.775 164.682 109.363 164.402 108.878C164.122 108.393 163.96 107.849 163.929 107.29C163.929 106.259 164.653 105.843 165.542 106.362C166.011 106.667 166.401 107.079 166.68 107.564C166.959 108.049 167.12 108.593 167.149 109.152C167.163 109.343 167.13 109.534 167.053 109.709C166.976 109.884 166.857 110.038 166.707 110.157Z" fill="white"/>
<path d="M145.338 140.57C134.97 123.098 117.517 114.33 106.355 120.928L96.6528 126.503L100.371 132.691C100.97 131.739 101.679 130.86 102.483 130.074C111.917 127.015 124.883 134.317 132.883 147.763C140.883 161.21 141.05 176.109 133.85 182.925C132.903 183.223 131.926 183.418 130.938 183.507L134.566 189.536L143.891 184.192C155.053 177.568 155.699 158.035 145.338 140.57Z" fill="#D6D8E5"/>
<path d="M136.006 145.92C125.638 128.448 108.186 119.68 97.024 126.278C85.8624 132.877 85.216 152.435 95.584 169.907C105.952 187.379 123.405 196.147 134.566 189.542C145.728 182.938 146.374 163.379 136.006 145.92ZM133.85 182.931C124.41 185.99 111.45 178.688 103.45 165.235C95.4496 151.782 95.2832 136.896 102.483 130.08C111.917 127.021 124.883 134.323 132.883 147.77C140.883 161.216 141.05 176.109 133.85 182.925V182.931Z" fill="#B1B4C4"/>
<path d="M103.462 165.229C95.4817 151.789 95.2961 136.89 102.496 130.074C106.611 128.736 111.405 129.376 116.16 131.635C110.323 128.858 104.442 128.493 99.8144 131.238C90.3104 136.877 89.7089 153.427 98.4705 168.192C107.232 182.957 122.048 190.362 131.552 184.723C132.388 184.213 133.163 183.61 133.862 182.925C124.41 185.984 111.43 178.682 103.462 165.229Z" fill="#A1A5B5"/>
<path opacity="0.1" d="M132.902 147.763C124.922 134.323 111.936 127.014 102.502 130.074C95.3024 136.89 95.4624 151.782 103.469 165.229C111.475 178.675 124.429 185.984 133.869 182.925C141.05 176.109 140.864 161.216 132.902 147.763Z" fill="#3E7EFF"/>
<path d="M145.888 169.414L166.81 181.478V186.867L145.888 174.803V169.414Z" fill="#B1B4C4"/>
<path d="M150.554 166.72L171.475 178.784L166.81 181.478L145.888 169.414L150.554 166.72Z" fill="#D6D8E5"/>
<path d="M162.374 178.432C164.352 175.091 167.686 173.414 169.818 174.682L207.821 196.774L200.582 208.806L162.65 186.758C160.518 185.491 160.422 181.76 162.374 178.432Z" fill="#2673F0"/>
<path d="M208.025 205.056C206.041 208.39 202.713 210.074 200.582 208.806C198.451 207.539 198.323 203.814 200.307 200.486C202.291 197.158 205.619 195.469 207.75 196.736C209.881 198.003 210.003 201.722 208.025 205.056Z" fill="#1F3F72"/>
<path opacity="0.3" d="M163.763 273.741L9.57405 181.76C8.83165 181.338 8.93405 180.589 9.77885 180.096C10.2164 179.853 10.7049 179.716 11.2051 179.696C11.7053 179.676 12.2032 179.773 12.6588 179.981L166.822 271.962C167.564 272.39 167.462 273.133 166.617 273.626C166.183 273.865 165.699 273.999 165.204 274.019C164.708 274.039 164.215 273.944 163.763 273.741Z" fill="#D6D8E5"/>
</svg>
