<svg width="263" height="275" viewBox="0 0 263 275" fill="none" xmlns="http://www.w3.org/2000/svg">
<path opacity="0.4" d="M254.938 188.652L144.987 125.194L3.66743 206.759L0 209.017L112.621 274.02L257.728 190.263V187.046L254.938 188.652Z" fill="#D6D8E5"/>
<path d="M259.373 186.076L149.421 122.613L7.09891 204.759L4.30859 203.147V206.37L117.05 271.444L262.163 187.687V184.465L259.373 186.076Z" fill="#252935"/>
<path d="M117.05 268.222L4.30859 203.147L149.421 119.391L262.163 184.465L117.05 268.222Z" fill="#2B303F"/>
<path d="M7.12598 204.759C7.47134 204.682 10.448 202.841 10.448 202.841V181.549L7.12598 179.631V204.759Z" fill="#3A4151"/>
<path d="M117.117 264.681L10.1201 203.076V173.027L11.836 171.619L117.117 231.821V264.681Z" fill="#E6E9EF"/>
<path d="M256.171 184.383L117.116 264.681V231.821L253.14 153.276L256.171 155.15V184.383Z" fill="#F4F6F9"/>
<path d="M259.373 157.726L149.421 94.2629L7.09891 176.409L4.30859 174.797V178.02L117.05 243.094L262.163 159.337V156.12L259.373 157.726Z" fill="#252935"/>
<path d="M117.05 239.872L4.30859 174.797L149.421 91.0459L262.163 156.12L117.05 239.872Z" fill="#2B303F"/>
<path d="M4.30859 203.147V174.797L7.09891 176.409V207.866L4.30859 203.147Z" fill="#252935"/>
<path d="M250.475 152.432L146.28 92.2899L11.4075 170.134L8.75977 168.61V171.663L115.603 233.328L253.123 153.955V150.903L250.475 152.432Z" fill="#E8A30A"/>
<path d="M115.603 230.275L8.75977 168.61L146.28 89.2373L253.123 150.903L115.603 230.275Z" fill="#F9CB07"/>
<path d="M11.4082 170.133C11.7316 170.062 14.5548 168.319 14.5548 168.319V148.141L11.4082 146.327V170.133Z" fill="#F9CB07"/>
<path d="M115.664 226.921L14.2695 168.539V140.068L15.8922 138.731L115.664 195.782V226.921Z" fill="#E6E9EF"/>
<path d="M247.445 150.826L115.664 226.921V195.782L244.572 121.347L247.445 123.123V150.826Z" fill="#F4F6F9"/>
<path d="M250.475 125.567L146.28 65.425L11.4075 143.269L8.75977 141.745V144.798L115.603 206.463L253.123 127.09V124.038L250.475 125.567Z" fill="#E8A30A"/>
<path d="M115.603 203.411L8.75977 141.745L146.28 62.3724L253.123 124.038L115.603 203.411Z" fill="#F9CB07"/>
<path d="M8.75977 168.61V141.745L11.4075 143.269V173.082L8.75977 168.61Z" fill="#E8A30A"/>
<path d="M245.142 118.497L145.595 61.0406L16.742 135.415L14.2148 133.957V136.873L116.289 195.787L247.669 119.955V117.039L245.142 118.497Z" fill="#1F3F72"/>
<path d="M116.289 192.872L14.2148 133.957L145.595 58.1251L247.669 117.039L116.289 192.872Z" fill="#3D74CC"/>
<path d="M16.7422 135.415C17.0547 135.338 19.7518 133.678 19.7518 133.678V114.398L16.7422 112.666V135.415Z" fill="#3D74CC"/>
<path d="M116.349 189.66L19.4775 133.892V106.687L21.0289 105.41L116.349 159.913V189.66Z" fill="#E6E9EF"/>
<path d="M242.242 116.968L116.349 189.66V159.913L239.501 88.7989L242.242 90.4978V116.968Z" fill="#F4F6F9"/>
<path d="M245.142 92.8325L145.595 35.376L16.742 109.745L14.2148 108.287V111.203L116.289 170.123L247.669 94.2903V91.3747L245.142 92.8325Z" fill="#AB210D"/>
<path d="M116.289 167.202L14.2148 108.287L145.595 32.4604L247.669 91.3748L116.289 167.202Z" fill="#FF582B"/>
<path d="M14.2148 133.957V108.287L16.742 109.745V138.227L14.2148 133.957Z" fill="#1F3F72"/>
<path d="M250.229 90.5856L145.425 30.0929L9.76872 108.391L7.10449 106.857V109.931L114.573 171.959L252.893 92.1201V89.051L250.229 90.5856Z" fill="#A5AD00"/>
<path d="M114.573 168.884L7.10449 106.857L145.425 27.0239L252.893 89.051L114.573 168.884Z" fill="#B9CC00"/>
<path d="M9.76855 108.391C10.092 108.32 12.9316 106.566 12.9316 106.566V86.2889L9.76855 84.4584V108.391Z" fill="#B9CC00"/>
<path d="M114.633 165.508L12.6465 106.791V78.145L14.2801 76.8023L114.633 134.188V165.508Z" fill="#E6E9EF"/>
<path d="M247.181 88.9743L114.633 165.508V134.188L244.292 59.3198L247.181 61.1064V88.9743Z" fill="#F4F6F9"/>
<path d="M250.229 63.5617L145.425 3.06903L9.76872 81.373L7.10449 79.8385V82.9075L114.573 144.935L252.893 65.0962V62.0272L250.229 63.5617Z" fill="#A5AD00"/>
<path d="M114.573 141.866L7.10449 79.8385L145.425 0L252.893 62.0272L114.573 141.866Z" fill="#2673F0"/>
<path d="M7.10449 106.857V79.8385L9.76872 81.373V111.356L7.10449 106.857Z" fill="#A5AD00"/>
<path d="M193.764 82.0142L107.139 32.0165L116.069 26.8649L202.695 76.8626L193.764 82.0142Z" fill="#395D96"/>
<path d="M165.511 81.8389L107.446 48.3262L111.914 45.7504L169.979 79.2631L165.511 81.8389Z" fill="#395D96"/>
<path d="M155.753 88.2509L97.6885 54.7328L102.151 52.157L160.216 85.6696L155.753 88.2509Z" fill="#395D96"/>
<path d="M135.727 87.7248L96.7285 65.2168L101.196 62.641L140.189 85.149L135.727 87.7248Z" fill="#395D96"/>
</svg>
