<svg width="206" height="275" viewBox="0 0 206 275" fill="none" xmlns="http://www.w3.org/2000/svg">
<path d="M188.857 91.8275L33.7023 2.24149C29.5065 -0.179753 25.6716 -0.570761 22.7541 0.737612C22.3506 0.920245 21.9632 1.13657 21.5961 1.38428L5.38428 10.3624L17.1747 26.9051V144.042C17.1747 154.569 24.5738 167.382 33.7173 172.616L94.5041 207.701L101.903 226.785L94.1131 260.578L111.272 251.043L128.086 227.086L180.721 257.495L182.571 273.27L199.565 263.796C203.099 262.292 205.355 258.457 205.355 252.652V120.431C205.4 109.904 198.001 97.0911 188.857 91.8275Z" fill="#EDEEF7"/>
<path d="M171.713 101.362L16.5427 11.7759C7.42916 6.51234 0 10.7834 0 21.3105V153.652C0 164.179 7.39908 176.992 16.5427 182.225L77.3294 217.311L94.1127 260.577L110.911 236.666L171.698 271.766C180.826 277.03 188.24 272.759 188.24 262.232V129.966C188.225 119.439 180.841 106.625 171.713 101.362Z" fill="#F8F9FF"/>
<path d="M94.9856 75.9467C114.762 87.3761 130.748 115.047 130.673 137.771C130.597 160.495 114.536 169.668 94.76 158.239C74.984 146.809 58.9978 119.138 59.073 96.4295C59.1482 73.7209 75.2246 64.5322 94.9856 75.9467ZM114.536 142.568L102.31 121.394L114.626 114.371L107.227 101.558L94.9104 108.581L82.6839 87.3912L75.2397 91.6321L87.4662 112.792L75.1495 119.815L82.5335 132.613L94.8503 125.59L107.077 146.779L114.521 142.538" fill="#FF7B7B"/>
<path d="M107.211 101.557L114.61 114.37L102.293 121.394L114.52 142.568L107.076 146.809L94.8492 125.619L82.5324 132.628L75.1484 119.845L87.4652 112.821L75.2236 91.6318L82.6678 87.3909L94.8943 108.581L107.211 101.557Z" fill="white"/>
<path d="M136.537 212.845L136.507 224.5L47.312 172.992L47.3421 161.352L136.537 212.845Z" fill="#C1C4D3"/>
<path d="M141.44 195.249L141.41 206.904L42.5151 149.817L42.5452 138.162L141.44 195.249Z" fill="#C1C4D3"/>
</svg>
